ply
format ascii 1.0
element vertex 341
property float x
property float y
property float z
property uchar red
property uchar green
property uchar blue
element face 658
property list uchar int vertex_indices
end_header
-2.424000 -8.251651 2.209415 255 63 63
0.190765 -7.343943 2.949002 255 63 63
1.322371 -8.959500 3.409145 255 63 63
2.401425 -9.656335 3.123806 255 63 63
2.507284 -9.854180 3.098907 255 63 63
2.442708 -10.193422 3.125085 255 63 63
1.249464 -9.997595 3.454354 255 63 63
1.249372 -9.992529 3.454258 255 63 63
1.258233 -9.780564 3.446714 255 63 63
-1.460036 -10.410861 2.655997 255 63 63
-2.424000 -10.588215 2.372370 255 63 63
-2.424000 -10.794259 2.375129 255 63 63
1.188667 -10.178640 3.438739 255 63 63
1.245916 -10.077904 3.454376 255 63 63
1.493855 -10.642738 3.379759 255 63 63
1.763059 -11.039851 3.301299 255 63 63
1.015290 -12.064395 3.166643 255 63 63
0.945280 -12.168652 3.150213 255 63 63
0.821981 -13.543999 2.574580 255 63 63
-2.424000 -13.543999 1.753351 255 63 63
-2.424000 -12.125764 2.314768 255 63 63
0.579659 -11.837089 3.188963 255 63 63
-2.424000 -13.543999 0.543317 255 63 63
-1.435899 -13.543999 0.101967 255 63 63
0.604890 -13.543999 0.077985 255 63 63
-0.277011 -12.126975 0.020722 255 63 63
-0.327813 -12.008170 0.016233 255 63 63
-0.352348 -12.031204 0.017099 255 63 63
-0.353515 -12.036084 0.017283 255 63 63
-1.538906 -13.171840 0.085416 255 63 63
-2.121839 -11.389721 0.046217 255 63 63
-2.146175 -11.322404 0.045771 255 63 63
-0.841788 -11.724687 0.023285 255 63 63
-0.331763 -11.996823 0.016155 255 63 63
-0.328112 -11.844162 0.015968 255 63 63
2.221881 -10.703693 0.048094 255 63 63
2.246506 -10.769415 0.048523 255 63 63
2.450698 -11.987088 0.053113 255 63 63
-0.327674 -12.007891 0.016226 255 63 63
2.741684 -13.543999 0.106865 255 63 63
3.525640 -13.543999 1.362094 255 63 63
3.735809 -11.323729 2.286371 255 63 63
2.393493 -10.793754 3.131469 255 63 63
3.626600 -10.248759 2.396086 255 63 63
3.589081 -10.094707 2.425233 255 63 63
3.523789 -9.915117 2.427043 255 63 63
2.511020 -8.256179 1.832377 255 63 63
1.979183 -9.995499 0.077286 255 63 63
-2.424000 -10.307744 0.087241 255 63 63
-2.424000 -10.731378 0.070513 255 63 63
2.595539 -0.227927 0.097257 255 207 63
2.407968 -1.090506 1.098918 255 207 63
2.609281 -3.064950 1.909896 255 207 63
1.840498 -6.503079 3.307918 255 207 63
2.188151 -6.688981 3.238127 255 207 63
1.983344 -10.247445 3.171021 255 207 63
1.304123 -11.944000 3.246602 255 207 63
0.844113 -11.944000 3.331691 255 207 63
1.570609 -6.624579 3.354255 255 207 63
0.636656 -6.580937 3.324584 255 207 63
-0.178337 -8.721786 3.298903 255 207 63
-0.197713 -9.427586 3.298355 255 207 63
-0.257574 -9.166527 2.796874 255 207 63
-0.229070 -8.715801 2.917956 255 207 63
1.520330 -3.324880 0.805881 255 207 63
0.997436 -6.986984 0.558447 255 207 63
-0.268500 -9.650199 2.617243 255 207 63
-0.159471 -11.517844 3.299772 255 207 63
0.060145 -11.944000 3.306789 255 207 63
1.181778 -11.944000 2.450199 255 207 63
2.155497 -8.783245 0.410561 255 207 63
2.183677 -8.028589 0.079607 255 207 63
3.268518 -5.659318 0.055539 255 207 63
2.474250 -4.894812 -0.021706 255 207 63
2.296934 -5.295068 -0.017278 255 207 63
1.718791 -6.998526 0.012281 255 207 63
1.449995 -6.533318 0.026810 255 207 63
2.034788 -3.551432 -0.002302 255 207 63
2.431799 -4.768197 -0.024093 255 207 63
2.483569 -4.726162 -0.024226 255 207 63
3.271029 -2.511324 -0.004991 255 207 63
2.632391 -0.263771 0.033978 255 207 63
3.578446 -3.694350 0.042019 255 207 63
3.396833 -5.395564 0.060547 255 207 63
3.390226 -5.664802 0.182133 255 207 63
3.486501 -5.611285 0.666982 255 207 63
3.477763 -6.040998 1.749124 255 207 63
3.483027 -5.974024 1.748697 255 207 63
3.583770 -4.305328 0.426831 255 207 63
2.954527 -5.150029 2.454630 255 207 63
-0.909605 0.209594 1.839616 159 255 63
-0.909605 -2.720074 2.494777 159 255 63
-0.057993 -1.159946 3.245952 159 255 63
-0.649087 0.560039 2.097769 159 255 63
1.183478 1.919655 1.628486 159 255 63
1.884070 -0.659426 3.314761 159 255 63
0.935349 -1.479046 3.627394 159 255 63
1.320839 -4.513758 3.102100 159 255 63
2.300294 -3.896086 2.752317 159 255 63
4.149057 -2.452380 2.124943 159 255 63
4.140499 -2.568159 1.475150 159 255 63
2.636748 1.032303 0.030883 159 255 63
3.502338 -1.339496 -0.037116 159 255 63
3.833716 -2.231841 -0.016080 159 255 63
4.117733 -2.668811 0.987050 159 255 63
3.759559 -3.038970 0.567390 159 255 63
3.379590 -3.305042 0.006003 159 255 63
1.877487 -4.272068 0.021780 159 255 63
2.007319 -1.991869 -0.028289 159 255 63
0.474297 0.543981 0.054063 159 255 63
2.238116 2.074483 0.061052 159 255 63
2.177249 2.397665 0.838032 159 255 63
3.495094 -0.647886 2.620653 159 255 63
-0.909605 -0.589641 0.187526 159 255 63
-0.909605 -3.651892 0.240419 159 255 63
-0.909605 -4.067310 2.183144 159 255 63
0.797106 -4.863314 2.781213 159 255 63
1.458454 -4.540516 0.060899 159 255 63
0.674705 2.018148 1.929873 63 255 111
0.808591 2.018148 0.080405 63 255 111
1.549831 4.649264 0.005899 63 255 111
2.421580 5.749016 -0.053237 63 255 111
2.456308 5.396812 -0.049936 63 255 111
2.474488 5.924721 -0.053530 63 255 111
2.503686 6.061984 -0.052473 63 255 111
2.295708 7.316669 0.007525 63 255 111
3.022799 9.952404 0.146311 63 255 111
3.211071 6.902939 -0.002986 63 255 111
3.274527 5.832501 0.012465 63 255 111
2.547810 2.827921 -0.017804 63 255 111
2.352808 2.018148 0.003477 63 255 111
2.434028 2.018148 2.790171 63 255 111
2.075876 2.018148 3.096176 63 255 111
2.153969 4.087566 3.217921 63 255 111
2.153906 4.092638 3.218294 63 255 111
3.126483 5.759023 2.530924 63 255 111
2.976000 10.056000 1.193000 63 255 111
3.251715 5.629291 0.914087 63 255 111
3.170459 5.108543 2.442416 63 255 111
3.144727 5.483667 2.498565 63 255 111
1.963813 4.053467 3.261788 63 255 111
1.973031 4.046916 3.262358 63 255 111
2.001744 4.041260 3.259459 63 255 111
1.655214 2.018148 3.219910 63 255 111
1.594685 2.018148 3.225598 63 255 111
1.439415 2.018148 3.215348 63 255 111
1.803424 3.907310 3.250351 63 255 111
1.772172 3.904975 3.237105 63 255 111
1.412320 4.197561 2.949940 63 255 111
0.761856 2.018148 2.865447 63 255 111
1.010796 2.018148 3.031624 63 255 111
1.896797 14.898726 2.660637 63 255 255
1.747135 15.029696 1.954639 63 255 255
1.761461 15.883394 1.874378 63 255 255
1.930231 15.652487 2.684716 63 255 255
2.937153 17.929029 2.826095 63 255 255
3.540281 19.383898 2.793566 63 255 255
3.813451 12.997490 2.571453 63 255 255
2.954422 13.063848 2.680732 63 255 255
2.926264 13.055508 2.680665 63 255 255
3.002938 9.073235 1.291155 63 255 255
2.878367 9.586854 1.463463 63 255 255
2.796980 13.065723 2.676456 63 255 255
2.862425 13.068891 2.681506 63 255 255
2.927321 15.607414 2.758987 63 255 255
2.132319 13.592172 2.641137 63 255 255
2.403712 11.455693 1.970490 63 255 255
2.328275 11.454451 1.545538 63 255 255
2.783599 9.352788 0.535523 63 255 255
2.997298 8.711597 0.646579 63 255 255
3.025854 8.746078 0.865087 63 255 255
3.805806 11.871211 0.996622 63 255 255
3.782497 12.120853 0.075685 63 255 255
3.786216 12.350106 0.034091 63 255 255
3.098087 13.188784 -0.168984 63 255 255
3.013199 13.134170 -0.165170 63 255 255
3.046833 8.928663 0.605240 63 255 255
2.393565 13.140015 -0.147214 63 255 255
2.173565 13.095504 -0.132294 63 255 255
1.760995 15.403740 -0.097769 63 255 255
1.776631 15.947267 -0.097351 63 255 255
1.783173 15.963016 -0.097755 63 255 255
2.981341 14.176689 -0.184567 63 255 255
2.981296 14.141989 -0.184659 63 255 255
2.967372 13.966828 -0.184186 63 255 255
3.123404 13.653198 -0.181076 63 255 255
3.136797 13.740894 -0.181233 63 255 255
3.528323 15.769689 -0.164677 63 255 255
3.795133 16.943813 -0.145162 63 255 255
3.829023 14.406340 -0.036560 63 255 255
3.868356 14.522240 1.141074 63 255 255
3.820753 12.001253 1.383890 63 255 255
3.820981 12.165942 2.282158 63 255 255
3.045927 8.891273 1.223700 63 255 255
3.831909 12.790741 2.497860 63 255 255
3.877249 15.076909 1.588907 63 255 255
3.803416 19.456001 0.957519 63 255 255
3.547699 19.456001 2.723542 63 255 255
3.222871 19.456001 1.734697 63 255 255
3.233206 19.456001 -0.063069 63 255 255
3.767478 19.456001 -0.082094 63 255 255
1.760160 15.933942 1.805495 63 255 255
1.747749 15.899207 1.455867 63 255 255
1.723932 14.973311 1.295899 63 255 255
1.730923 14.787621 1.614895 63 255 255
3.500201 18.807219 -0.105007 63 111 255
3.079691 18.326344 -0.117822 63 111 255
2.794876 15.763416 -0.185033 63 111 255
2.787451 15.746248 -0.185044 63 111 255
2.790437 15.530874 -0.185067 63 111 255
3.031865 15.533251 -0.184752 63 111 255
3.083972 15.771715 -0.184654 63 111 255
3.645498 17.711502 -0.133593 63 111 255
3.832039 16.469124 0.033158 63 111 255
3.668946 13.456001 0.212804 63 111 255
3.735162 13.456001 1.041558 63 111 255
3.952430 16.668053 1.393341 63 111 255
3.951901 16.649208 1.449448 63 111 255
3.871619 15.378849 1.750378 63 111 255
3.908059 16.179480 1.858692 63 111 255
3.726738 16.177626 2.753934 63 111 255
3.733228 16.447847 2.759748 63 111 255
3.930773 16.563370 1.800312 63 111 255
3.936375 16.636406 1.762253 63 111 255
3.681569 18.105585 2.748066 63 111 255
3.570299 18.930321 2.726177 63 111 255
3.637457 18.986521 1.371138 63 111 255
3.952067 16.674454 1.384088 63 111 255
2.703677 17.941261 2.829398 63 111 255
3.038304 16.096113 2.871776 63 111 255
3.103898 16.002514 2.870183 63 111 255
3.007204 14.802199 2.857523 63 111 255
2.918113 14.791870 2.858145 63 111 255
2.940692 15.941332 2.870847 63 111 255
2.438946 17.296087 2.830600 63 111 255
1.950506 16.134199 2.769099 63 111 255
2.020427 14.657251 2.763116 63 111 255
2.830224 14.758016 2.848655 63 111 255
2.750534 13.456001 2.297305 63 111 255
3.630822 13.456001 2.247596 63 111 255
3.615280 14.593508 2.734093 63 111 255
3.743493 13.456001 1.690888 63 111 255
2.032929 13.456001 2.259025 63 111 255
1.824512 13.456001 -0.086050 63 111 255
2.855603 13.456001 -0.084211 63 111 255
1.797204 13.980897 -0.111583 63 111 255
1.782150 14.297984 -0.110776 63 111 255
1.941039 15.583885 -0.123467 63 111 255
2.131671 17.243238 -0.080447 63 111 255
1.776000 16.856003 1.193000 63 111 255
1.866606 16.976027 2.276909 63 111 255
2.663418 17.895231 2.828722 63 111 255
3.706501 17.120209 2.782532 63 111 255
-0.209246 16.517185 0.782412 159 63 255
0.598904 15.556469 0.529751 159 63 255
-0.624696 14.828235 0.661357 159 63 255
-1.807915 14.743245 0.859805 159 63 255
-3.730659 14.237343 2.342615 159 63 255
-3.153920 14.233344 2.389195 159 63 255
-2.244644 14.260307 2.357681 159 63 255
-0.943751 14.552511 1.512433 159 63 255
-0.166431 14.866526 2.842913 159 63 255
1.195233 15.706285 2.417116 159 63 255
1.504007 16.494493 2.354594 159 63 255
1.901999 17.034262 1.709953 159 63 255
1.918244 17.039005 1.663163 159 63 255
1.915337 17.050301 1.517157 159 63 255
0.276302 16.913113 1.896135 159 63 255
0.468854 16.929232 1.653514 159 63 255
1.553440 17.020014 1.340294 159 63 255
1.905195 17.049454 1.291754 159 63 255
1.843643 16.904011 0.913736 159 63 255
1.793097 16.746759 0.870105 159 63 255
1.655086 16.207396 1.527109 159 63 255
1.554195 16.000898 1.608007 159 63 255
1.226954 15.912115 0.634820 159 63 255
0.127320 16.640482 0.820316 159 63 255
0.492368 16.865932 1.306895 159 63 255
-0.894016 16.746622 3.037980 159 63 255
1.089635 16.923441 2.442189 159 63 255
1.392917 16.575890 2.397867 159 63 255
-1.371367 15.684923 3.308599 159 63 255
-1.513899 16.575230 3.238663 159 63 255
-2.792719 16.138020 3.246513 159 63 255
-2.184948 15.328725 3.319479 159 63 255
-2.237906 15.293163 3.319682 159 63 255
-3.824000 14.931684 3.282260 159 63 255
-3.824000 15.780684 3.229746 159 63 255
-3.824000 15.380859 1.287889 159 63 255
-3.824000 15.255756 1.273507 159 63 255
-3.824000 14.256432 2.366845 159 63 255
-3.824000 14.785207 3.277761 159 63 255
-3.030954 14.749531 3.289825 159 63 255
-2.069826 14.806931 3.307537 159 63 255
-1.481134 14.830622 3.298141 159 63 255
-1.389491 15.634599 3.312038 159 63 255
-0.756021 14.719938 3.039635 159 63 255
0.254595 15.259175 1.771012 255 63 207
0.213882 15.679959 1.875961 255 63 207
0.165367 15.955568 1.903382 255 63 207
0.022447 16.644449 1.930958 255 63 207
-0.655024 16.481245 0.579148 255 63 207
-0.676926 15.950412 0.308195 255 63 207
0.187038 15.202138 1.618585 255 63 207
0.250115 15.209023 1.740854 255 63 207
-0.302678 14.333851 2.306597 255 63 207
-0.346846 14.350752 2.421860 255 63 207
-0.567563 14.711672 3.220913 255 63 207
-0.313572 15.447196 3.229991 255 63 207
-0.324146 15.877999 3.257566 255 63 207
-0.384185 16.210678 3.286107 255 63 207
-0.410696 16.327803 3.296906 255 63 207
-0.768694 15.761352 3.312599 255 63 207
-0.672877 14.709927 3.235519 255 63 207
-0.752941 14.701941 3.232589 255 63 207
-1.353547 14.685390 3.213905 255 63 207
-0.843379 15.801551 3.313485 255 63 207
-0.857075 15.846566 3.313081 255 63 207
-0.633306 16.898310 3.292753 255 63 207
-0.516927 16.890190 3.290550 255 63 207
-0.694262 16.901018 3.283902 255 63 207
-1.077492 16.544970 0.809239 255 63 207
-1.007699 16.501513 0.557712 255 63 207
-1.584112 15.965233 0.234149 255 63 207
-3.351837 14.940290 0.903895 255 63 207
-2.724891 14.779165 0.583722 255 63 207
-1.406965 14.582021 -0.067029 255 63 207
-1.042329 15.096231 -0.157485 255 63 207
-0.749980 15.158671 -0.099563 255 63 207
-0.709756 15.072674 -0.056323 255 63 207
-1.175764 14.537325 0.013857 255 63 207
-0.629162 14.362193 1.545181 255 63 207
-3.824000 15.132770 2.333250 255 63 207
-3.824000 15.349154 2.913590 255 63 207
-3.824000 15.328004 2.914643 255 63 207
-3.824000 15.167283 2.909781 255 63 207
-1.554792 14.670097 3.187481 255 63 207
-0.812081 14.476839 2.768397 255 63 207
-1.885336 16.823093 3.117469 255 63 207
-0.203840 15.926369 2.939327 255 63 207
-0.201660 15.901113 2.943100 255 63 207
3 22 23 24
3 22 24 39
3 22 39 40
3 22 40 18
3 22 18 19
3 19 20 11
3 19 11 10
3 19 10 0
3 19 0 48
3 19 48 49
3 19 49 22
3 36 43 41
3 36 41 40
3 36 40 39
3 36 39 37
3 2 3 45
3 2 45 46
3 2 46 1
3 30 27 28
3 30 28 29
3 0 1 46
3 0 46 47
3 0 47 48
3 18 40 41
3 18 41 42
3 18 42 15
3 18 15 16
3 18 16 17
3 9 7 8
3 35 36 37
3 35 37 26
3 35 26 38
3 35 38 33
3 35 33 34
3 30 31 32
3 30 32 33
3 30 33 38
3 30 38 26
3 30 26 27
3 30 27 28
3 9 10 11
3 9 11 12
3 9 12 13
3 9 13 6
3 9 6 7
3 10 9 8
3 10 8 2
3 10 2 1
3 10 1 0
3 32 34 33
3 32 33 38
3 32 38 26
3 29 23 24
3 29 24 25
3 29 25 28
3 29 28 27
3 25 26 38
3 25 38 37
3 25 37 39
3 25 39 24
3 28 27 26
3 28 26 38
3 28 38 25
3 49 48 47
3 49 47 35
3 49 35 34
3 49 34 32
3 49 32 31
3 20 21 12
3 20 12 11
3 42 41 43
3 42 43 44
3 42 44 4
3 42 4 5
3 46 45 44
3 46 44 43
3 46 43 36
3 46 36 35
3 46 35 47
3 4 44 45
3 4 45 3
3 14 15 42
3 14 42 5
3 14 5 7
3 14 7 6
3 14 6 13
3 8 7 6
3 8 6 5
3 8 5 4
3 8 4 3
3 8 3 2
3 21 17 16
3 21 16 14
3 21 14 13
3 21 13 12
3 16 15 14
3 49 31 30
3 49 30 29
3 49 29 23
3 49 23 22
3 19 18 17
3 19 17 21
3 19 21 20
3 66 62 63
3 66 63 64
3 66 64 65
3 59 58 53
3 59 53 52
3 59 52 51
3 77 78 74
3 77 74 75
3 77 75 76
3 81 80 79
3 81 79 78
3 81 78 77
3 78 79 73
3 78 73 74
3 80 82 83
3 80 83 72
3 80 72 73
3 80 73 79
3 74 73 72
3 74 72 71
3 74 71 75
3 52 89 87
3 52 87 88
3 52 88 82
3 52 82 80
3 52 80 81
3 52 81 50
3 52 50 51
3 70 84 85
3 70 85 86
3 70 86 55
3 70 55 56
3 70 56 69
3 65 76 75
3 65 75 71
3 65 71 70
3 65 70 69
3 65 69 68
3 65 68 67
3 65 67 66
3 67 68 57
3 67 57 58
3 67 58 59
3 67 59 60
3 67 60 61
3 57 56 55
3 57 55 54
3 57 54 53
3 57 53 58
3 63 60 59
3 63 59 51
3 63 51 50
3 63 50 64
3 64 50 81
3 64 81 77
3 64 77 76
3 64 76 65
3 53 54 89
3 53 89 52
3 55 86 87
3 55 87 89
3 55 89 54
3 72 83 84
3 72 84 70
3 72 70 71
3 85 88 87
3 85 87 86
3 84 83 82
3 84 82 88
3 84 88 85
3 69 56 57
3 69 57 68
3 67 61 62
3 67 62 66
3 61 60 63
3 61 63 62
3 108 102 103
3 108 103 106
3 108 106 107
3 109 110 101
3 109 101 102
3 109 102 108
3 113 109 108
3 113 108 107
3 113 107 117
3 113 117 114
3 101 110 111
3 101 111 112
3 101 112 99
3 101 99 100
3 103 102 101
3 103 101 100
3 103 100 104
3 97 98 99
3 97 99 112
3 97 112 95
3 97 95 96
3 117 107 106
3 117 106 105
3 117 105 98
3 117 98 97
3 117 97 116
3 105 104 100
3 105 100 99
3 105 99 98
3 103 104 105
3 103 105 106
3 95 112 111
3 95 111 94
3 92 96 95
3 92 95 94
3 92 94 93
3 115 116 97
3 115 97 96
3 115 96 92
3 115 92 91
3 114 117 116
3 114 116 115
3 115 91 90
3 115 90 113
3 115 113 114
3 91 92 93
3 91 93 90
3 90 93 94
3 90 94 111
3 90 111 110
3 90 110 109
3 90 109 113
3 118 119 130
3 118 130 131
3 118 131 132
3 118 132 143
3 118 143 144
3 118 144 145
3 118 145 150
3 118 150 149
3 140 141 142
3 140 142 134
3 140 134 135
3 140 135 136
3 118 136 126
3 118 126 125
3 118 125 120
3 118 120 119
3 148 147 146
3 148 146 140
3 148 140 136
3 125 124 123
3 125 123 121
3 125 121 120
3 123 124 127
3 123 127 128
3 123 128 129
3 123 129 122
3 121 123 122
3 120 121 122
3 120 122 129
3 120 129 130
3 120 130 119
3 126 127 124
3 126 124 125
3 149 148 136
3 149 136 118
3 137 136 135
3 137 135 139
3 137 139 138
3 128 127 126
3 128 126 136
3 128 136 137
3 143 132 133
3 143 133 134
3 143 134 142
3 145 144 141
3 145 141 140
3 145 140 146
3 144 143 142
3 144 142 141
3 132 131 138
3 132 138 139
3 132 139 134
3 132 134 133
3 134 133 139
3 134 139 135
3 150 145 146
3 150 146 147
3 149 150 147
3 149 147 148
3 130 129 128
3 130 128 137
3 130 137 138
3 130 138 131
3 178 177 175
3 178 175 176
3 178 176 169
3 178 169 168
3 160 193 192
3 160 192 194
3 160 194 157
3 160 157 158
3 160 158 159
3 161 160 159
3 161 159 163
3 161 163 162
3 164 158 157
3 164 157 156
3 164 156 155
3 184 183 186
3 184 186 185
3 184 185 174
3 184 174 175
3 184 175 177
3 187 186 183
3 187 183 182
3 179 180 181
3 179 181 182
3 179 182 183
3 179 183 184
3 179 184 177
3 179 177 178
3 199 200 188
3 199 188 187
3 199 187 182
3 199 182 181
3 175 174 173
3 175 173 172
3 175 172 176
3 163 159 158
3 163 158 164
3 167 204 203
3 167 203 179
3 167 179 178
3 167 178 168
3 165 162 163
3 165 163 164
3 165 164 155
3 165 155 154
3 165 154 151
3 172 173 189
3 172 189 190
3 172 190 191
3 172 191 171
3 191 190 195
3 191 195 194
3 191 194 192
3 166 161 162
3 166 162 165
3 202 201 198
3 202 198 199
3 202 199 181
3 202 181 180
3 189 188 200
3 189 200 196
3 189 196 195
3 189 195 190
3 187 188 189
3 187 189 173
3 187 173 174
3 187 174 185
3 187 185 186
3 201 153 154
3 201 154 155
3 201 155 156
3 201 156 197
3 201 197 198
3 165 151 152
3 165 152 204
3 165 204 167
3 165 167 166
3 195 196 197
3 195 197 156
3 195 156 157
3 195 157 194
3 193 160 161
3 193 161 166
3 193 166 167
3 193 167 168
3 193 168 169
3 193 169 170
3 193 170 171
3 193 171 191
3 193 191 192
3 169 176 172
3 169 172 171
3 169 171 170
3 198 197 196
3 198 196 200
3 198 200 199
3 152 153 201
3 152 201 202
3 152 202 203
3 152 203 204
3 203 202 180
3 203 180 179
3 151 154 153
3 151 153 152
3 243 244 214
3 243 214 215
3 243 215 241
3 243 241 239
3 243 239 238
3 243 238 242
3 250 251 228
3 250 228 225
3 250 225 226
3 250 226 205
3 250 205 206
3 250 206 248
3 250 248 249
3 242 236 235
3 242 235 250
3 242 250 249
3 242 249 246
3 242 246 245
3 242 245 243
3 232 231 230
3 232 230 229
3 232 229 233
3 236 237 232
3 236 232 233
3 236 233 234
3 236 234 235
3 223 217 216
3 223 216 227
3 223 227 226
3 223 226 225
3 223 225 224
3 215 216 217
3 215 217 218
3 215 218 241
3 208 207 211
3 208 211 210
3 208 210 209
3 206 205 212
3 206 212 211
3 206 211 207
3 214 213 227
3 214 227 216
3 214 216 215
3 233 229 228
3 233 228 251
3 233 251 234
3 247 208 209
3 247 209 245
3 247 245 246
3 248 206 207
3 248 207 208
3 248 208 247
3 209 210 244
3 209 244 243
3 209 243 245
3 229 230 252
3 229 252 224
3 229 224 225
3 229 225 228
3 213 212 205
3 213 205 226
3 213 226 227
3 217 223 222
3 217 222 219
3 217 219 218
3 231 240 220
3 231 220 221
3 231 221 252
3 231 252 230
3 219 222 221
3 219 221 220
3 241 218 219
3 241 219 220
3 241 220 240
3 241 240 239
3 222 223 224
3 222 224 252
3 222 252 221
3 210 211 212
3 210 212 213
3 210 213 214
3 210 214 244
3 242 238 237
3 242 237 236
3 238 239 240
3 238 240 231
3 238 231 232
3 238 232 237
3 249 248 247
3 249 247 246
3 235 234 251
3 235 251 250
3 255 254 275
3 255 275 274
3 255 274 262
3 255 262 261
3 255 261 260
3 258 259 296
3 258 296 294
3 258 294 293
3 258 293 292
3 256 255 260
3 256 260 259
3 256 259 258
3 256 258 257
3 272 271 270
3 272 270 266
3 272 266 265
3 272 265 273
3 275 272 273
3 275 273 274
3 290 257 258
3 290 258 292
3 290 292 291
3 294 296 261
3 294 261 262
3 294 262 263
3 294 263 280
3 294 280 281
3 294 281 295
3 281 280 279
3 281 279 278
3 281 278 282
3 274 273 265
3 274 265 264
3 274 264 263
3 274 263 262
3 253 276 271
3 253 271 272
3 253 272 275
3 253 275 254
3 288 253 254
3 288 254 255
3 288 255 256
3 288 256 289
3 287 283 282
3 287 282 278
3 287 278 267
3 287 267 268
3 287 268 277
3 287 277 276
3 287 276 253
3 287 253 288
3 289 256 257
3 289 257 290
3 291 292 293
3 291 293 285
3 291 285 286
3 293 294 295
3 293 295 284
3 293 284 285
3 286 285 284
3 286 284 283
3 286 283 287
3 284 295 281
3 284 281 282
3 284 282 283
3 278 279 264
3 278 264 265
3 278 265 266
3 278 266 267
3 268 267 266
3 268 266 270
3 268 270 269
3 268 269 277
3 291 286 287
3 291 287 288
3 291 288 289
3 291 289 290
3 277 269 270
3 277 270 271
3 277 271 276
3 280 263 264
3 280 264 279
3 259 260 261
3 259 261 296
3 317 316 312
3 317 312 311
3 317 311 319
3 317 319 318
3 315 314 313
3 315 313 312
3 315 312 316
3 313 307 308
3 313 308 309
3 313 309 310
3 313 310 311
3 313 311 312
3 335 336 315
3 335 315 316
3 335 316 317
3 335 317 334
3 333 334 317
3 333 317 318
3 333 318 320
3 333 320 338
3 338 320 321
3 320 318 319
3 320 319 300
3 320 300 301
3 320 301 322
3 320 322 321
3 332 333 338
3 332 338 321
3 332 321 322
3 332 322 323
3 332 323 324
3 323 322 301
3 323 301 302
3 323 302 328
3 323 328 327
3 302 303 329
3 302 329 328
3 301 300 299
3 301 299 298
3 301 298 297
3 301 297 304
3 301 304 303
3 301 303 302
3 330 329 303
3 330 303 304
3 330 304 305
3 330 305 331
3 323 327 326
3 323 326 325
3 323 325 324
3 297 298 340
3 297 340 309
3 297 309 308
3 299 300 319
3 299 319 311
3 299 311 310
3 299 310 339
3 340 339 310
3 340 310 309
3 298 299 339
3 298 339 340
3 324 325 331
3 324 331 305
3 324 305 306
3 324 306 337
3 324 337 336
3 324 336 335
3 324 335 332
3 326 330 331
3 326 331 325
3 306 305 304
3 306 304 297
3 306 297 308
3 306 308 307
3 327 328 329
3 327 329 330
3 327 330 326
3 337 306 307
3 337 307 313
3 337 313 314
3 337 314 315
3 337 315 336
3 335 334 333
3 335 333 332
